<svg viewBox="0 0 20 21" fill="none" xmlns="http://www.w3.org/2000/svg">
<path d="M8.33337 10.9966C8.33337 11.4386 8.50897 11.8625 8.82153 12.1751C9.13409 12.4876 9.55801 12.6632 10 12.6632C10.4421 12.6632 10.866 12.4876 11.1786 12.1751C11.4911 11.8625 11.6667 11.4386 11.6667 10.9966C11.6667 10.5545 11.4911 10.1306 11.1786 9.81805C10.866 9.50549 10.4421 9.3299 10 9.3299C9.55801 9.3299 9.13409 9.50549 8.82153 9.81805C8.50897 10.1306 8.33337 10.5545 8.33337 10.9966Z" stroke="currentColor" stroke-linecap="round" stroke-linejoin="round"/>
<path d="M6.66663 17.6633V16.8299C6.66663 16.3879 6.84222 15.964 7.15478 15.6514C7.46734 15.3389 7.89127 15.1633 8.33329 15.1633H11.6666C12.1087 15.1633 12.5326 15.3389 12.8451 15.6514C13.1577 15.964 13.3333 16.3879 13.3333 16.8299V17.6633" stroke="currentColor" stroke-linecap="round" stroke-linejoin="round"/>
<path d="M12.5 4.32987C12.5 4.7719 12.6756 5.19583 12.9882 5.50839C13.3007 5.82095 13.7246 5.99654 14.1667 5.99654C14.6087 5.99654 15.0326 5.82095 15.3452 5.50839C15.6577 5.19583 15.8333 4.7719 15.8333 4.32987C15.8333 3.88785 15.6577 3.46392 15.3452 3.15136C15.0326 2.8388 14.6087 2.66321 14.1667 2.66321C13.7246 2.66321 13.3007 2.8388 12.9882 3.15136C12.6756 3.46392 12.5 3.88785 12.5 4.32987Z" stroke="currentColor" stroke-linecap="round" stroke-linejoin="round"/>
<path d="M14.1666 8.49658H15.8333C16.2753 8.49658 16.6992 8.67218 17.0118 8.98474C17.3244 9.2973 17.5 9.72122 17.5 10.1632V10.9966" stroke="currentColor" stroke-linecap="round" stroke-linejoin="round"/>
<path d="M4.16675 4.32987C4.16675 4.7719 4.34234 5.19583 4.6549 5.50839C4.96746 5.82095 5.39139 5.99654 5.83341 5.99654C6.27544 5.99654 6.69937 5.82095 7.01193 5.50839C7.32449 5.19583 7.50008 4.7719 7.50008 4.32987C7.50008 3.88785 7.32449 3.46392 7.01193 3.15136C6.69937 2.8388 6.27544 2.66321 5.83341 2.66321C5.39139 2.66321 4.96746 2.8388 4.6549 3.15136C4.34234 3.46392 4.16675 3.88785 4.16675 4.32987Z" stroke="currentColor" stroke-linecap="round" stroke-linejoin="round"/>
<path d="M2.5 10.9966V10.1632C2.5 9.72122 2.67559 9.2973 2.98816 8.98474C3.30072 8.67218 3.72464 8.49658 4.16667 8.49658H5.83333" stroke="currentColor" stroke-linecap="round" stroke-linejoin="round"/>
</svg>
