<svg viewBox="0 0 20 21" fill="none" xmlns="http://www.w3.org/2000/svg">
<path d="M4.16667 10.1632H2.5L10 2.66321L17.5 10.1632H15.8333" stroke="currentColor" stroke-linecap="round" stroke-linejoin="round"/>
<path d="M4.16675 10.1632V15.9965C4.16675 16.4386 4.34234 16.8625 4.6549 17.1751C4.96746 17.4876 5.39139 17.6632 5.83341 17.6632H14.1667C14.6088 17.6632 15.0327 17.4876 15.3453 17.1751C15.6578 16.8625 15.8334 16.4386 15.8334 15.9965V10.1632" stroke="currentColor" stroke-linecap="round" stroke-linejoin="round"/>
<path d="M7.5 17.6632V12.6632C7.5 12.2212 7.6756 11.7973 7.98816 11.4847C8.30072 11.1722 8.72464 10.9966 9.16667 10.9966H10.8333C11.2754 10.9966 11.6993 11.1722 12.0118 11.4847C12.3244 11.7973 12.5 12.2212 12.5 12.6632V17.6632" stroke="currentColor" stroke-linecap="round" stroke-linejoin="round"/>
</svg>
