<svg viewBox="0 0 544 110" fill="none" xmlns="http://www.w3.org/2000/svg">
<path fill-rule="evenodd" clip-rule="evenodd" d="M61.432 32.2673L29.0727 42.3099L28.9382 42.1141L0 0L56.4281 27.1333L61.432 30.5674L61.432 32.2673Z" fill="#595959"/>
<path fill-rule="evenodd" clip-rule="evenodd" d="M29.6501 43.1489L66.3176 42.3729L66.3176 37.6726L61.4326 32.5656L61.4326 32.2669L29.0732 42.3094L29.6501 43.1489Z" fill="#6C6C6C"/>
<path fill-rule="evenodd" clip-rule="evenodd" d="M29.6504 43.1488L66.3174 42.3728L66.3174 42.5571L64.5411 45.4437L69.4993 55.7323L69.5742 55.5709L69.5742 101.25L30.1246 43.839L29.6504 43.1488Z" fill="#7A7A7A"/>
<path fill-rule="evenodd" clip-rule="evenodd" d="M77.5671 32.2673L109.926 42.3098L110.061 42.1141L138.999 0L82.5709 27.1333L77.5671 30.5673L77.5671 32.2673Z" fill="#8C8C8C"/>
<path fill-rule="evenodd" clip-rule="evenodd" d="M109.35 43.1491L72.6824 42.373L72.6824 37.6727L77.5674 32.5657L77.5674 32.2671L109.927 42.3096L109.35 43.1491Z" fill="#7C7C7C"/>
<path fill-rule="evenodd" clip-rule="evenodd" d="M109.349 43.1488L72.6816 42.3728L72.6816 42.5571L74.4579 45.4437L69.4988 55.9543L69.4248 55.7926L69.4248 101.25L108.874 43.839L109.349 43.1488Z" fill="#888888"/>
<path d="M224.6 24.7832L196.087 82.8584C195.639 83.7542 194.967 84.4681 194.071 85C193.203 85.5599 192.238 85.8398 191.174 85.8398C190.138 85.8398 189.172 85.5599 188.276 85C187.409 84.4681 186.737 83.7542 186.261 82.8584L157.79 24.7832H170.01L191.174 68.1611L212.422 24.7832H224.6ZM293.181 60.3926H258.706V49.3906H293.181V60.3926ZM298.094 85H258.706C257.194 85 255.542 84.734 253.751 84.2021C251.959 83.6702 250.293 82.8024 248.754 81.5986C247.242 80.3669 245.968 78.7852 244.932 76.8535C243.924 74.8939 243.421 72.5003 243.421 69.6729V30.2842C243.421 29.5283 243.56 28.8145 243.84 28.1426C244.12 27.4707 244.498 26.8828 244.974 26.3789C245.478 25.875 246.066 25.4831 246.738 25.2031C247.41 24.9232 248.138 24.7832 248.921 24.7832H298.094V35.7012H254.338V69.6729C254.338 71.1006 254.716 72.1924 255.472 72.9482C256.228 73.7041 257.334 74.082 258.79 74.082H298.094V85ZM376.88 85H327.077C326.293 85 325.566 84.86 324.894 84.5801C324.222 84.3001 323.634 83.9222 323.13 83.4463C322.654 82.9424 322.276 82.3545 321.996 81.6826C321.716 81.0107 321.576 80.2829 321.576 79.499V24.7832H332.494V74.082H376.88V85ZM460.075 60.6445C460.075 64.3118 459.445 67.6852 458.185 70.7646C456.926 73.8441 455.176 76.5036 452.936 78.7432C450.697 80.9827 448.037 82.7324 444.958 83.9922C441.906 85.224 438.575 85.8398 434.964 85.8398H420.182C416.571 85.8398 413.226 85.224 410.146 83.9922C407.067 82.7324 404.407 80.9827 402.168 78.7432C399.928 76.5036 398.165 73.8441 396.877 70.7646C395.617 67.6852 394.987 64.3118 394.987 60.6445V49.1387C394.987 45.4993 395.617 42.14 396.877 39.0605C398.165 35.9531 399.928 33.2936 402.168 31.082C404.407 28.8424 407.067 27.0928 410.146 25.833C413.226 24.5732 416.571 23.9434 420.182 23.9434H434.964C438.575 23.9434 441.906 24.5732 444.958 25.833C448.037 27.0928 450.697 28.8424 452.936 31.082C455.176 33.2936 456.926 35.9531 458.185 39.0605C459.445 42.14 460.075 45.4993 460.075 49.1387V60.6445ZM449.157 49.1387C449.157 46.9831 448.807 45.0374 448.107 43.3018C447.435 41.5381 446.47 40.0404 445.21 38.8086C443.978 37.5488 442.48 36.583 440.717 35.9111C438.981 35.2113 437.063 34.8613 434.964 34.8613H420.182C418.055 34.8613 416.109 35.2113 414.346 35.9111C412.61 36.583 411.112 37.5488 409.852 38.8086C408.593 40.0404 407.613 41.5381 406.913 43.3018C406.241 45.0374 405.905 46.9831 405.905 49.1387V60.6445C405.905 62.8001 406.241 64.7598 406.913 66.5234C407.613 68.2591 408.593 69.7568 409.852 71.0166C411.112 72.2484 412.61 73.2142 414.346 73.9141C416.109 74.5859 418.055 74.9219 420.182 74.9219H434.88C437.007 74.9219 438.939 74.5859 440.675 73.9141C442.438 73.2142 443.95 72.2484 445.21 71.0166C446.47 69.7568 447.435 68.2591 448.107 66.5234C448.807 64.7598 449.157 62.8001 449.157 60.6445V49.1387ZM509.676 46.2832L528.069 24.7832H542.976L517.067 54.9756L542.808 85H527.985L509.676 63.668L491.452 85H476.586L502.286 54.9756L476.502 24.7832H491.284L509.676 46.2832Z" fill="#787878"/>
</svg>
