<svg viewBox="0 0 20 21" fill="none" xmlns="http://www.w3.org/2000/svg">
<path d="M4.16667 6.82992C5.08714 6.82992 5.83333 6.08372 5.83333 5.16325C5.83333 4.24277 5.08714 3.49658 4.16667 3.49658C3.24619 3.49658 2.5 4.24277 2.5 5.16325C2.5 6.08372 3.24619 6.82992 4.16667 6.82992Z" stroke="currentColor" stroke-linecap="round" stroke-linejoin="round"/>
<path d="M10 6.82992C10.9205 6.82992 11.6667 6.08372 11.6667 5.16325C11.6667 4.24277 10.9205 3.49658 10 3.49658C9.07957 3.49658 8.33337 4.24277 8.33337 5.16325C8.33337 6.08372 9.07957 6.82992 10 6.82992Z" stroke="currentColor" stroke-linecap="round" stroke-linejoin="round"/>
<path d="M15.8333 6.82992C16.7538 6.82992 17.5 6.08372 17.5 5.16325C17.5 4.24277 16.7538 3.49658 15.8333 3.49658C14.9128 3.49658 14.1666 4.24277 14.1666 5.16325C14.1666 6.08372 14.9128 6.82992 15.8333 6.82992Z" stroke="currentColor" stroke-linecap="round" stroke-linejoin="round"/>
<path d="M4.16667 16.8299C5.08714 16.8299 5.83333 16.0837 5.83333 15.1632C5.83333 14.2428 5.08714 13.4966 4.16667 13.4966C3.24619 13.4966 2.5 14.2428 2.5 15.1632C2.5 16.0837 3.24619 16.8299 4.16667 16.8299Z" stroke="currentColor" stroke-linecap="round" stroke-linejoin="round"/>
<path d="M10 16.8299C10.9205 16.8299 11.6667 16.0837 11.6667 15.1632C11.6667 14.2428 10.9205 13.4966 10 13.4966C9.07957 13.4966 8.33337 14.2428 8.33337 15.1632C8.33337 16.0837 9.07957 16.8299 10 16.8299Z" stroke="currentColor" stroke-linecap="round" stroke-linejoin="round"/>
<path d="M4.16663 6.82983V13.4965" stroke="currentColor" stroke-linecap="round" stroke-linejoin="round"/>
<path d="M10 6.82983V13.4965" stroke="currentColor" stroke-linecap="round" stroke-linejoin="round"/>
<path d="M15.8333 6.82983V8.4965C15.8333 8.93853 15.6577 9.36245 15.3451 9.67501C15.0326 9.98757 14.6087 10.1632 14.1666 10.1632H4.16663" stroke="currentColor" stroke-linecap="round" stroke-linejoin="round"/>
</svg>
