<svg viewBox="0 0 20 21" fill="none" xmlns="http://www.w3.org/2000/svg">
<path d="M8.60417 3.76071C8.95917 2.29737 11.0408 2.29737 11.3958 3.76071C11.4491 3.98054 11.5535 4.18469 11.7006 4.35654C11.8477 4.52839 12.0332 4.66309 12.2422 4.74966C12.4512 4.83624 12.6776 4.87225 12.9032 4.85477C13.1287 4.83728 13.3469 4.76679 13.54 4.64904C14.8258 3.86571 16.2983 5.33737 15.515 6.62404C15.3974 6.81709 15.327 7.03516 15.3096 7.26052C15.2922 7.48588 15.3281 7.71218 15.4146 7.92102C15.5011 8.12987 15.6356 8.31536 15.8073 8.46242C15.9789 8.60948 16.1829 8.71396 16.4025 8.76737C17.8658 9.12237 17.8658 11.204 16.4025 11.559C16.1827 11.6123 15.9785 11.7167 15.8067 11.8638C15.6348 12.0109 15.5001 12.1964 15.4135 12.4054C15.327 12.6144 15.291 12.8408 15.3084 13.0664C15.3259 13.2919 15.3964 13.5101 15.5142 13.7032C16.2975 14.989 14.8258 16.4615 13.5392 15.6782C13.3461 15.5606 13.1281 15.4902 12.9027 15.4728C12.6773 15.4554 12.451 15.4913 12.2422 15.5778C12.0333 15.6643 11.8479 15.7988 11.7008 15.9705C11.5537 16.1421 11.4492 16.3461 11.3958 16.5657C11.0408 18.029 8.95917 18.029 8.60417 16.5657C8.5509 16.3459 8.44648 16.1417 8.29941 15.9699C8.15233 15.798 7.96676 15.6633 7.75779 15.5768C7.54882 15.4902 7.32236 15.4542 7.09685 15.4716C6.87133 15.4891 6.65313 15.5596 6.46 15.6774C5.17417 16.4607 3.70167 14.989 4.485 13.7024C4.60258 13.5093 4.67296 13.2913 4.6904 13.0659C4.70785 12.8405 4.67187 12.6142 4.58539 12.4054C4.49892 12.1965 4.36438 12.0111 4.19273 11.864C4.02107 11.7169 3.81714 11.6125 3.5975 11.559C2.13417 11.204 2.13417 9.12237 3.5975 8.76737C3.81733 8.71411 4.02148 8.60969 4.19333 8.46262C4.36518 8.31554 4.49988 8.12997 4.58645 7.921C4.67303 7.71203 4.70904 7.48557 4.69156 7.26005C4.67407 7.03454 4.60359 6.81633 4.48583 6.62321C3.7025 5.33737 5.17417 3.86487 6.46083 4.64821C7.29417 5.15487 8.37417 4.70654 8.60417 3.76071Z" stroke="currentColor" stroke-linecap="round" stroke-linejoin="round"/>
<path d="M10 12.6632C11.3807 12.6632 12.5 11.5439 12.5 10.1632C12.5 8.7825 11.3807 7.66321 10 7.66321C8.61929 7.66321 7.5 8.7825 7.5 10.1632C7.5 11.5439 8.61929 12.6632 10 12.6632Z" stroke="currentColor" stroke-linecap="round" stroke-linejoin="round"/>
</svg>
